<mxfile host="app.diagrams.net" agent="Mozilla/5.0 (Windows NT 10.0; Win64; x64) AppleWebKit/537.36 (KHTML, like Gecko) Chrome/140.0.0.0 Safari/537.36 Edg/140.0.0.0" version="28.2.0">
  <diagram name="Page-1" id="xzClO7cJmwliFMf-_SYi">
    <mxGraphModel dx="566" dy="398" grid="1" gridSize="10" guides="1" tooltips="1" connect="1" arrows="1" fold="1" page="1" pageScale="1" pageWidth="3300" pageHeight="4681" math="0" shadow="0">
      <root>
        <mxCell id="0" />
        <mxCell id="1" parent="0" />
        <mxCell id="PNhSBjz8JBKgSJSJJbeo-35" value="" style="group" parent="1" vertex="1" connectable="0">
          <mxGeometry x="240" y="1000" width="320" height="390" as="geometry" />
        </mxCell>
        <mxCell id="PNhSBjz8JBKgSJSJJbeo-13" style="edgeStyle=orthogonalEdgeStyle;rounded=0;orthogonalLoop=1;jettySize=auto;html=1;exitX=0.5;exitY=1;exitDx=0;exitDy=0;entryX=0.5;entryY=0;entryDx=0;entryDy=0;" parent="PNhSBjz8JBKgSJSJJbeo-35" source="PNhSBjz8JBKgSJSJJbeo-10" target="PNhSBjz8JBKgSJSJJbeo-11" edge="1">
          <mxGeometry relative="1" as="geometry" />
        </mxCell>
        <mxCell id="PNhSBjz8JBKgSJSJJbeo-10" value="Conv(5x5)" style="rounded=0;whiteSpace=wrap;html=1;fillColor=#fff2cc;strokeColor=#d6b656;" parent="PNhSBjz8JBKgSJSJJbeo-35" vertex="1">
          <mxGeometry y="120" width="120" height="40" as="geometry" />
        </mxCell>
        <mxCell id="PNhSBjz8JBKgSJSJJbeo-14" style="edgeStyle=orthogonalEdgeStyle;rounded=0;orthogonalLoop=1;jettySize=auto;html=1;exitX=0.5;exitY=1;exitDx=0;exitDy=0;entryX=0.5;entryY=0;entryDx=0;entryDy=0;" parent="PNhSBjz8JBKgSJSJJbeo-35" source="PNhSBjz8JBKgSJSJJbeo-11" target="PNhSBjz8JBKgSJSJJbeo-12" edge="1">
          <mxGeometry relative="1" as="geometry" />
        </mxCell>
        <mxCell id="PNhSBjz8JBKgSJSJJbeo-11" value="ReLU" style="rounded=0;whiteSpace=wrap;html=1;fillColor=#ffe6cc;strokeColor=#d79b00;" parent="PNhSBjz8JBKgSJSJJbeo-35" vertex="1">
          <mxGeometry y="200" width="120" height="40" as="geometry" />
        </mxCell>
        <mxCell id="PNhSBjz8JBKgSJSJJbeo-12" value="MaxPool" style="rounded=0;whiteSpace=wrap;html=1;fillColor=#d5e8d4;strokeColor=#82b366;" parent="PNhSBjz8JBKgSJSJJbeo-35" vertex="1">
          <mxGeometry y="280" width="120" height="40" as="geometry" />
        </mxCell>
        <mxCell id="PNhSBjz8JBKgSJSJJbeo-15" value="" style="endArrow=classic;html=1;rounded=0;entryX=0.5;entryY=0;entryDx=0;entryDy=0;" parent="PNhSBjz8JBKgSJSJJbeo-35" target="PNhSBjz8JBKgSJSJJbeo-10" edge="1">
          <mxGeometry width="50" height="50" relative="1" as="geometry">
            <mxPoint x="60" y="80" as="sourcePoint" />
            <mxPoint x="110" y="30" as="targetPoint" />
          </mxGeometry>
        </mxCell>
        <mxCell id="PNhSBjz8JBKgSJSJJbeo-16" value="Input" style="text;html=1;align=center;verticalAlign=middle;whiteSpace=wrap;rounded=0;" parent="PNhSBjz8JBKgSJSJJbeo-35" vertex="1">
          <mxGeometry x="30" y="50" width="60" height="30" as="geometry" />
        </mxCell>
        <mxCell id="PNhSBjz8JBKgSJSJJbeo-17" value="32x32" style="text;html=1;align=center;verticalAlign=middle;resizable=0;points=[];autosize=1;strokeColor=none;fillColor=none;" parent="PNhSBjz8JBKgSJSJJbeo-35" vertex="1">
          <mxGeometry x="60" y="80" width="60" height="30" as="geometry" />
        </mxCell>
        <mxCell id="PNhSBjz8JBKgSJSJJbeo-18" value="28x28" style="text;html=1;align=center;verticalAlign=middle;resizable=0;points=[];autosize=1;strokeColor=none;fillColor=none;" parent="PNhSBjz8JBKgSJSJJbeo-35" vertex="1">
          <mxGeometry x="60" y="160" width="60" height="30" as="geometry" />
        </mxCell>
        <mxCell id="PNhSBjz8JBKgSJSJJbeo-19" value="28x28" style="text;html=1;align=center;verticalAlign=middle;resizable=0;points=[];autosize=1;strokeColor=none;fillColor=none;" parent="PNhSBjz8JBKgSJSJJbeo-35" vertex="1">
          <mxGeometry x="60" y="240" width="60" height="30" as="geometry" />
        </mxCell>
        <mxCell id="PNhSBjz8JBKgSJSJJbeo-20" style="edgeStyle=orthogonalEdgeStyle;rounded=0;orthogonalLoop=1;jettySize=auto;html=1;exitX=0.5;exitY=1;exitDx=0;exitDy=0;entryX=0.5;entryY=0;entryDx=0;entryDy=0;" parent="PNhSBjz8JBKgSJSJJbeo-35" source="PNhSBjz8JBKgSJSJJbeo-21" target="PNhSBjz8JBKgSJSJJbeo-23" edge="1">
          <mxGeometry relative="1" as="geometry" />
        </mxCell>
        <mxCell id="PNhSBjz8JBKgSJSJJbeo-21" value="Conv(5x5)" style="rounded=0;whiteSpace=wrap;html=1;fillColor=#fff2cc;strokeColor=#d6b656;" parent="PNhSBjz8JBKgSJSJJbeo-35" vertex="1">
          <mxGeometry x="200" y="40" width="120" height="40" as="geometry" />
        </mxCell>
        <mxCell id="PNhSBjz8JBKgSJSJJbeo-22" style="edgeStyle=orthogonalEdgeStyle;rounded=0;orthogonalLoop=1;jettySize=auto;html=1;exitX=0.5;exitY=1;exitDx=0;exitDy=0;entryX=0.5;entryY=0;entryDx=0;entryDy=0;" parent="PNhSBjz8JBKgSJSJJbeo-35" source="PNhSBjz8JBKgSJSJJbeo-23" target="PNhSBjz8JBKgSJSJJbeo-24" edge="1">
          <mxGeometry relative="1" as="geometry" />
        </mxCell>
        <mxCell id="PNhSBjz8JBKgSJSJJbeo-23" value="ReLU" style="rounded=0;whiteSpace=wrap;html=1;fillColor=#ffe6cc;strokeColor=#d79b00;" parent="PNhSBjz8JBKgSJSJJbeo-35" vertex="1">
          <mxGeometry x="200" y="120" width="120" height="40" as="geometry" />
        </mxCell>
        <mxCell id="PNhSBjz8JBKgSJSJJbeo-30" style="edgeStyle=orthogonalEdgeStyle;rounded=0;orthogonalLoop=1;jettySize=auto;html=1;exitX=0.5;exitY=1;exitDx=0;exitDy=0;entryX=0.5;entryY=0;entryDx=0;entryDy=0;" parent="PNhSBjz8JBKgSJSJJbeo-35" source="PNhSBjz8JBKgSJSJJbeo-24" target="PNhSBjz8JBKgSJSJJbeo-29" edge="1">
          <mxGeometry relative="1" as="geometry" />
        </mxCell>
        <mxCell id="PNhSBjz8JBKgSJSJJbeo-24" value="MaxPool" style="rounded=0;whiteSpace=wrap;html=1;fillColor=#d5e8d4;strokeColor=#82b366;" parent="PNhSBjz8JBKgSJSJJbeo-35" vertex="1">
          <mxGeometry x="200" y="200" width="120" height="40" as="geometry" />
        </mxCell>
        <mxCell id="PNhSBjz8JBKgSJSJJbeo-25" value="" style="endArrow=classic;html=1;rounded=0;exitX=0.5;exitY=1;exitDx=0;exitDy=0;" parent="PNhSBjz8JBKgSJSJJbeo-35" source="PNhSBjz8JBKgSJSJJbeo-12" edge="1">
          <mxGeometry width="50" height="50" relative="1" as="geometry">
            <mxPoint x="70" y="320.0000000000002" as="sourcePoint" />
            <mxPoint x="260" y="40" as="targetPoint" />
            <Array as="points">
              <mxPoint x="60" y="340" />
              <mxPoint x="110" y="340" />
              <mxPoint x="160" y="340" />
              <mxPoint x="160" y="20" />
              <mxPoint x="260" y="20" />
            </Array>
          </mxGeometry>
        </mxCell>
        <mxCell id="PNhSBjz8JBKgSJSJJbeo-26" value="14x14" style="text;html=1;align=center;verticalAlign=middle;resizable=0;points=[];autosize=1;strokeColor=none;fillColor=none;" parent="PNhSBjz8JBKgSJSJJbeo-35" vertex="1">
          <mxGeometry x="260" width="60" height="30" as="geometry" />
        </mxCell>
        <mxCell id="PNhSBjz8JBKgSJSJJbeo-27" value="10x10" style="text;html=1;align=center;verticalAlign=middle;resizable=0;points=[];autosize=1;strokeColor=none;fillColor=none;" parent="PNhSBjz8JBKgSJSJJbeo-35" vertex="1">
          <mxGeometry x="260" y="80" width="60" height="30" as="geometry" />
        </mxCell>
        <mxCell id="PNhSBjz8JBKgSJSJJbeo-28" value="10x10" style="text;html=1;align=center;verticalAlign=middle;resizable=0;points=[];autosize=1;strokeColor=none;fillColor=none;" parent="PNhSBjz8JBKgSJSJJbeo-35" vertex="1">
          <mxGeometry x="260" y="160" width="60" height="30" as="geometry" />
        </mxCell>
        <mxCell id="PNhSBjz8JBKgSJSJJbeo-32" style="edgeStyle=orthogonalEdgeStyle;rounded=0;orthogonalLoop=1;jettySize=auto;html=1;exitX=0.5;exitY=1;exitDx=0;exitDy=0;" parent="PNhSBjz8JBKgSJSJJbeo-35" source="PNhSBjz8JBKgSJSJJbeo-29" edge="1">
          <mxGeometry relative="1" as="geometry">
            <mxPoint x="260.28571428571433" y="360" as="targetPoint" />
          </mxGeometry>
        </mxCell>
        <mxCell id="PNhSBjz8JBKgSJSJJbeo-29" value="FC" style="rounded=0;whiteSpace=wrap;html=1;fillColor=#f5f5f5;fontColor=#333333;strokeColor=#666666;" parent="PNhSBjz8JBKgSJSJJbeo-35" vertex="1">
          <mxGeometry x="200" y="280" width="120" height="40" as="geometry" />
        </mxCell>
        <mxCell id="PNhSBjz8JBKgSJSJJbeo-31" value="5x5" style="text;html=1;align=center;verticalAlign=middle;resizable=0;points=[];autosize=1;strokeColor=none;fillColor=none;" parent="PNhSBjz8JBKgSJSJJbeo-35" vertex="1">
          <mxGeometry x="270" y="240" width="40" height="30" as="geometry" />
        </mxCell>
        <mxCell id="PNhSBjz8JBKgSJSJJbeo-33" value="Output" style="text;html=1;align=center;verticalAlign=middle;resizable=0;points=[];autosize=1;strokeColor=none;fillColor=none;" parent="PNhSBjz8JBKgSJSJJbeo-35" vertex="1">
          <mxGeometry x="230" y="360" width="60" height="30" as="geometry" />
        </mxCell>
        <mxCell id="PNhSBjz8JBKgSJSJJbeo-34" value="10" style="text;html=1;align=center;verticalAlign=middle;resizable=0;points=[];autosize=1;strokeColor=none;fillColor=none;" parent="PNhSBjz8JBKgSJSJJbeo-35" vertex="1">
          <mxGeometry x="270" y="320" width="40" height="30" as="geometry" />
        </mxCell>
        <mxCell id="PNhSBjz8JBKgSJSJJbeo-36" value="" style="group;fontSize=16;" parent="1" vertex="1" connectable="0">
          <mxGeometry x="1200" y="120" width="800" height="600" as="geometry" />
        </mxCell>
        <mxCell id="PNhSBjz8JBKgSJSJJbeo-37" value="" style="rounded=0;whiteSpace=wrap;html=1;dashed=1;dashPattern=1 4;fontSize=16;fillColor=#60a917;fontColor=#ffffff;strokeColor=#2D7600;" parent="PNhSBjz8JBKgSJSJJbeo-36" vertex="1">
          <mxGeometry y="160" width="800" height="440" as="geometry" />
        </mxCell>
        <mxCell id="PNhSBjz8JBKgSJSJJbeo-38" value="&lt;div&gt;systolic array&lt;/div&gt;&lt;div&gt;&lt;br&gt;&lt;/div&gt;&lt;div&gt;5x5&lt;/div&gt;" style="whiteSpace=wrap;html=1;aspect=fixed;fillColor=#60a917;fontColor=#ffffff;strokeColor=#2D7600;fontSize=16;" parent="PNhSBjz8JBKgSJSJJbeo-36" vertex="1">
          <mxGeometry x="580" y="200" width="200" height="200" as="geometry" />
        </mxCell>
        <mxCell id="PNhSBjz8JBKgSJSJJbeo-39" value="line_buffer" style="rounded=0;whiteSpace=wrap;html=1;fillColor=#60a917;fontColor=#ffffff;strokeColor=#2D7600;fontSize=16;" parent="PNhSBjz8JBKgSJSJJbeo-36" vertex="1">
          <mxGeometry x="240" y="200" width="80" height="80" as="geometry" />
        </mxCell>
        <mxCell id="PNhSBjz8JBKgSJSJJbeo-40" value="&lt;div&gt;memory&lt;/div&gt;&lt;div&gt;&lt;br&gt;&lt;/div&gt;&lt;div&gt;&lt;br&gt;&lt;/div&gt;" style="rounded=0;whiteSpace=wrap;html=1;fillColor=#60a917;fontColor=#ffffff;strokeColor=#2D7600;fontSize=16;" parent="PNhSBjz8JBKgSJSJJbeo-36" vertex="1">
          <mxGeometry x="20" y="200" width="80" height="360" as="geometry" />
        </mxCell>
        <mxCell id="PNhSBjz8JBKgSJSJJbeo-41" value="MaxPool" style="whiteSpace=wrap;html=1;aspect=fixed;fillColor=#60a917;fontColor=#ffffff;strokeColor=#2D7600;fontSize=16;" parent="PNhSBjz8JBKgSJSJJbeo-36" vertex="1">
          <mxGeometry x="420" y="320" width="80" height="80" as="geometry" />
        </mxCell>
        <mxCell id="PNhSBjz8JBKgSJSJJbeo-42" value="" style="shape=flexArrow;endArrow=classic;html=1;rounded=0;entryX=0;entryY=0.5;entryDx=0;entryDy=0;exitX=0.998;exitY=0.111;exitDx=0;exitDy=0;exitPerimeter=0;fillColor=#60a917;strokeColor=#2D7600;fontSize=16;" parent="PNhSBjz8JBKgSJSJJbeo-36" source="PNhSBjz8JBKgSJSJJbeo-40" target="PNhSBjz8JBKgSJSJJbeo-39" edge="1">
          <mxGeometry width="50" height="50" relative="1" as="geometry">
            <mxPoint x="120" y="240" as="sourcePoint" />
            <mxPoint x="170" y="190" as="targetPoint" />
          </mxGeometry>
        </mxCell>
        <mxCell id="PNhSBjz8JBKgSJSJJbeo-43" value="FC (Output Register)" style="rounded=0;whiteSpace=wrap;html=1;fillColor=#d80073;fontColor=#ffffff;strokeColor=#A50040;fontSize=16;" parent="PNhSBjz8JBKgSJSJJbeo-36" vertex="1">
          <mxGeometry x="510" y="520" width="270" height="40" as="geometry" />
        </mxCell>
        <mxCell id="PNhSBjz8JBKgSJSJJbeo-44" value="" style="shape=flexArrow;endArrow=classic;html=1;rounded=0;exitX=1;exitY=0.5;exitDx=0;exitDy=0;entryX=0.008;entryY=0.195;entryDx=0;entryDy=0;entryPerimeter=0;fillColor=#60a917;strokeColor=#2D7600;fontSize=16;" parent="PNhSBjz8JBKgSJSJJbeo-36" source="PNhSBjz8JBKgSJSJJbeo-39" target="PNhSBjz8JBKgSJSJJbeo-38" edge="1">
          <mxGeometry width="50" height="50" relative="1" as="geometry">
            <mxPoint x="420" y="240" as="sourcePoint" />
            <mxPoint x="500" y="241" as="targetPoint" />
          </mxGeometry>
        </mxCell>
        <mxCell id="PNhSBjz8JBKgSJSJJbeo-45" value="" style="shape=flexArrow;endArrow=classic;html=1;rounded=0;entryX=0.5;entryY=0;entryDx=0;entryDy=0;fillColor=#60a917;strokeColor=#2D7600;fontSize=16;" parent="PNhSBjz8JBKgSJSJJbeo-36" target="PNhSBjz8JBKgSJSJJbeo-41" edge="1">
          <mxGeometry width="50" height="50" relative="1" as="geometry">
            <mxPoint x="460" y="240" as="sourcePoint" />
            <mxPoint x="510" y="190" as="targetPoint" />
          </mxGeometry>
        </mxCell>
        <mxCell id="PNhSBjz8JBKgSJSJJbeo-46" value="" style="shape=flexArrow;endArrow=classic;html=1;rounded=0;entryX=1;entryY=0.889;entryDx=0;entryDy=0;entryPerimeter=0;exitX=0.5;exitY=0;exitDx=0;exitDy=0;fontSize=16;fillColor=#60a917;strokeColor=#2D7600;" parent="PNhSBjz8JBKgSJSJJbeo-36" source="PNhSBjz8JBKgSJSJJbeo-58" target="PNhSBjz8JBKgSJSJJbeo-40" edge="1">
          <mxGeometry width="50" height="50" relative="1" as="geometry">
            <mxPoint x="209.83999999999997" y="520.08" as="sourcePoint" />
            <mxPoint x="120.00000000000006" y="519.9999999999999" as="targetPoint" />
            <Array as="points">
              <mxPoint x="430" y="520" />
            </Array>
          </mxGeometry>
        </mxCell>
        <mxCell id="PNhSBjz8JBKgSJSJJbeo-47" value="" style="shape=flexArrow;endArrow=classic;html=1;rounded=0;exitX=0.5;exitY=1;exitDx=0;exitDy=0;fillColor=#60a917;strokeColor=#2D7600;fontSize=16;" parent="PNhSBjz8JBKgSJSJJbeo-36" source="PNhSBjz8JBKgSJSJJbeo-41" edge="1">
          <mxGeometry width="50" height="50" relative="1" as="geometry">
            <mxPoint x="459.76" y="400" as="sourcePoint" />
            <mxPoint x="460" y="460" as="targetPoint" />
          </mxGeometry>
        </mxCell>
        <mxCell id="PNhSBjz8JBKgSJSJJbeo-48" value="" style="shape=flexArrow;endArrow=classic;html=1;rounded=0;entryX=0.632;entryY=-0.02;entryDx=0;entryDy=0;entryPerimeter=0;fillColor=#60a917;strokeColor=#2D7600;fontSize=16;" parent="PNhSBjz8JBKgSJSJJbeo-36" target="PNhSBjz8JBKgSJSJJbeo-43" edge="1">
          <mxGeometry width="50" height="50" relative="1" as="geometry">
            <mxPoint x="679.76" y="400" as="sourcePoint" />
            <mxPoint x="679.76" y="440" as="targetPoint" />
          </mxGeometry>
        </mxCell>
        <mxCell id="PNhSBjz8JBKgSJSJJbeo-49" value="Output Result" style="text;html=1;align=center;verticalAlign=middle;resizable=0;points=[];autosize=1;strokeColor=#2D7600;fillColor=#60a917;fontSize=16;fontColor=#ffffff;" parent="PNhSBjz8JBKgSJSJJbeo-36" vertex="1">
          <mxGeometry x="490" y="560" width="120" height="30" as="geometry" />
        </mxCell>
        <mxCell id="PNhSBjz8JBKgSJSJJbeo-50" value="Relu" style="whiteSpace=wrap;html=1;aspect=fixed;fillColor=#60a917;fontColor=#ffffff;strokeColor=#2D7600;fontSize=16;" parent="PNhSBjz8JBKgSJSJJbeo-36" vertex="1">
          <mxGeometry x="320" y="320" width="80" height="80" as="geometry" />
        </mxCell>
        <mxCell id="PNhSBjz8JBKgSJSJJbeo-51" value="" style="shape=flexArrow;endArrow=classic;html=1;rounded=0;entryX=0.5;entryY=0;entryDx=0;entryDy=0;fillColor=#60a917;strokeColor=#2D7600;fontSize=16;" parent="PNhSBjz8JBKgSJSJJbeo-36" target="PNhSBjz8JBKgSJSJJbeo-50" edge="1">
          <mxGeometry width="50" height="50" relative="1" as="geometry">
            <mxPoint x="360" y="240" as="sourcePoint" />
            <mxPoint x="360" y="310" as="targetPoint" />
          </mxGeometry>
        </mxCell>
        <mxCell id="PNhSBjz8JBKgSJSJJbeo-52" value="" style="shape=flexArrow;endArrow=classic;html=1;rounded=0;exitX=0.5;exitY=1;exitDx=0;exitDy=0;fillColor=#60a917;strokeColor=#2D7600;fontSize=16;" parent="PNhSBjz8JBKgSJSJJbeo-36" source="PNhSBjz8JBKgSJSJJbeo-50" edge="1">
          <mxGeometry width="50" height="50" relative="1" as="geometry">
            <mxPoint x="359.65999999999997" y="400" as="sourcePoint" />
            <mxPoint x="360" y="460" as="targetPoint" />
          </mxGeometry>
        </mxCell>
        <mxCell id="PNhSBjz8JBKgSJSJJbeo-53" value="Controller" style="rounded=0;whiteSpace=wrap;html=1;fillColor=#d80073;strokeColor=#A50040;fontSize=16;fontColor=#ffffff;" parent="PNhSBjz8JBKgSJSJJbeo-36" vertex="1">
          <mxGeometry x="120" y="10" width="400" height="80" as="geometry" />
        </mxCell>
        <mxCell id="PNhSBjz8JBKgSJSJJbeo-54" value="" style="shape=flexArrow;endArrow=classic;startArrow=classic;html=1;rounded=0;width=28;startSize=11.075;startWidth=50.39239001189061;endWidth=50.39239001189061;endSize=8.332692307692307;fillColor=#d80073;strokeColor=#A50040;fontSize=16;" parent="PNhSBjz8JBKgSJSJJbeo-36" edge="1">
          <mxGeometry width="100" height="100" relative="1" as="geometry">
            <mxPoint x="360" y="160" as="sourcePoint" />
            <mxPoint x="360" y="90" as="targetPoint" />
          </mxGeometry>
        </mxCell>
        <mxCell id="PNhSBjz8JBKgSJSJJbeo-55" value="Datapath" style="text;html=1;align=center;verticalAlign=middle;whiteSpace=wrap;rounded=0;fontSize=16;" parent="PNhSBjz8JBKgSJSJJbeo-36" vertex="1">
          <mxGeometry y="130" width="60" height="30" as="geometry" />
        </mxCell>
        <mxCell id="PNhSBjz8JBKgSJSJJbeo-56" value="" style="shape=flexArrow;endArrow=classic;html=1;rounded=0;entryX=0.128;entryY=0.98;entryDx=0;entryDy=0;entryPerimeter=0;fillColor=#60a917;strokeColor=#2D7600;fontSize=16;" parent="PNhSBjz8JBKgSJSJJbeo-36" target="PNhSBjz8JBKgSJSJJbeo-58" edge="1">
          <mxGeometry width="50" height="50" relative="1" as="geometry">
            <mxPoint x="680" y="430" as="sourcePoint" />
            <mxPoint x="550" y="430" as="targetPoint" />
            <Array as="points">
              <mxPoint x="504" y="430" />
            </Array>
          </mxGeometry>
        </mxCell>
        <mxCell id="PNhSBjz8JBKgSJSJJbeo-57" style="edgeStyle=orthogonalEdgeStyle;rounded=0;orthogonalLoop=1;jettySize=auto;html=1;exitX=0.5;exitY=1;exitDx=0;exitDy=0;fontSize=16;fillColor=#60a917;strokeColor=#2D7600;" parent="PNhSBjz8JBKgSJSJJbeo-36" source="PNhSBjz8JBKgSJSJJbeo-37" target="PNhSBjz8JBKgSJSJJbeo-37" edge="1">
          <mxGeometry relative="1" as="geometry" />
        </mxCell>
        <mxCell id="PNhSBjz8JBKgSJSJJbeo-58" value="" style="shape=trapezoid;perimeter=trapezoidPerimeter;whiteSpace=wrap;html=1;fixedSize=1;rotation=-180;fillColor=#60a917;fontColor=#ffffff;strokeColor=#2D7600;fontSize=16;" parent="PNhSBjz8JBKgSJSJJbeo-36" vertex="1">
          <mxGeometry x="330" y="460" width="200" height="30" as="geometry" />
        </mxCell>
        <mxCell id="PNhSBjz8JBKgSJSJJbeo-59" value="Mux" style="text;html=1;align=center;verticalAlign=middle;whiteSpace=wrap;rounded=0;fontSize=16;fillColor=#60a917;fontColor=#ffffff;strokeColor=#2D7600;" parent="PNhSBjz8JBKgSJSJJbeo-36" vertex="1">
          <mxGeometry x="400" y="460" width="60" height="30" as="geometry" />
        </mxCell>
        <mxCell id="PNhSBjz8JBKgSJSJJbeo-60" value="Addr&lt;div&gt;Controller&lt;/div&gt;" style="rounded=0;whiteSpace=wrap;html=1;fillColor=#60a917;strokeColor=#2D7600;fontSize=16;fontColor=#ffffff;" parent="PNhSBjz8JBKgSJSJJbeo-36" vertex="1">
          <mxGeometry x="150" y="410" width="90" height="60" as="geometry" />
        </mxCell>
        <mxCell id="PNhSBjz8JBKgSJSJJbeo-61" value="" style="shape=flexArrow;endArrow=classic;startArrow=classic;html=1;rounded=0;entryX=0.176;entryY=0.988;entryDx=0;entryDy=0;entryPerimeter=0;fillColor=#d80073;width=28;strokeColor=#A50040;fontSize=16;" parent="PNhSBjz8JBKgSJSJJbeo-36" target="PNhSBjz8JBKgSJSJJbeo-53" edge="1">
          <mxGeometry width="100" height="100" relative="1" as="geometry">
            <mxPoint x="190" y="410" as="sourcePoint" />
            <mxPoint x="180" y="90" as="targetPoint" />
            <Array as="points">
              <mxPoint x="190" y="240" />
            </Array>
          </mxGeometry>
        </mxCell>
        <mxCell id="PNhSBjz8JBKgSJSJJbeo-62" value="" style="shape=flexArrow;endArrow=classic;startArrow=classic;html=1;rounded=0;entryX=0;entryY=0.5;entryDx=0;entryDy=0;exitX=0.993;exitY=0.669;exitDx=0;exitDy=0;exitPerimeter=0;fillColor=#60a917;strokeColor=#2D7600;fontSize=16;" parent="PNhSBjz8JBKgSJSJJbeo-36" source="PNhSBjz8JBKgSJSJJbeo-40" target="PNhSBjz8JBKgSJSJJbeo-60" edge="1">
          <mxGeometry width="100" height="100" relative="1" as="geometry">
            <mxPoint x="120" y="440" as="sourcePoint" />
            <mxPoint x="220" y="340" as="targetPoint" />
          </mxGeometry>
        </mxCell>
        <mxCell id="qFa7mxdC09aoMVFZ-_RW-43" value="AXI" style="text;html=1;align=center;verticalAlign=middle;whiteSpace=wrap;rounded=0;fontSize=50;" vertex="1" parent="PNhSBjz8JBKgSJSJJbeo-36">
          <mxGeometry x="290" y="-30" width="60" height="30" as="geometry" />
        </mxCell>
        <mxCell id="qFa7mxdC09aoMVFZ-_RW-10" value="" style="group" vertex="1" connectable="0" parent="1">
          <mxGeometry x="130" y="50" width="880" height="790" as="geometry" />
        </mxCell>
        <mxCell id="qFa7mxdC09aoMVFZ-_RW-5" value="" style="rounded=1;whiteSpace=wrap;html=1;fillColor=#d5e8d4;strokeColor=#82b366;" vertex="1" parent="qFa7mxdC09aoMVFZ-_RW-10">
          <mxGeometry y="70" width="880" height="720" as="geometry" />
        </mxCell>
        <mxCell id="PNhSBjz8JBKgSJSJJbeo-9" value="" style="group;fontSize=16;" parent="qFa7mxdC09aoMVFZ-_RW-10" vertex="1" connectable="0">
          <mxGeometry x="40" y="160" width="840" height="600" as="geometry" />
        </mxCell>
        <mxCell id="2QjoCw9Z01jg0YIHaSG_-22" value="" style="rounded=0;whiteSpace=wrap;html=1;dashed=1;dashPattern=1 4;fontSize=16;" parent="PNhSBjz8JBKgSJSJJbeo-9" vertex="1">
          <mxGeometry y="160" width="800" height="440" as="geometry" />
        </mxCell>
        <mxCell id="2QjoCw9Z01jg0YIHaSG_-1" value="&lt;div&gt;systolic array&lt;/div&gt;&lt;div&gt;&lt;br&gt;&lt;/div&gt;&lt;div&gt;5x5&lt;/div&gt;" style="whiteSpace=wrap;html=1;aspect=fixed;fillColor=#f5f5f5;fontColor=#333333;strokeColor=#666666;fontSize=16;" parent="PNhSBjz8JBKgSJSJJbeo-9" vertex="1">
          <mxGeometry x="580" y="200" width="200" height="200" as="geometry" />
        </mxCell>
        <mxCell id="2QjoCw9Z01jg0YIHaSG_-6" value="line_buffer" style="rounded=0;whiteSpace=wrap;html=1;fillColor=#f5f5f5;fontColor=#333333;strokeColor=#666666;fontSize=16;" parent="PNhSBjz8JBKgSJSJJbeo-9" vertex="1">
          <mxGeometry x="240" y="200" width="80" height="80" as="geometry" />
        </mxCell>
        <mxCell id="2QjoCw9Z01jg0YIHaSG_-7" value="&lt;div&gt;memory&lt;/div&gt;&lt;div&gt;&lt;br&gt;&lt;/div&gt;&lt;div&gt;&lt;br&gt;&lt;/div&gt;" style="rounded=0;whiteSpace=wrap;html=1;fillColor=#f5f5f5;fontColor=#333333;strokeColor=#666666;fontSize=16;" parent="PNhSBjz8JBKgSJSJJbeo-9" vertex="1">
          <mxGeometry x="20" y="200" width="80" height="360" as="geometry" />
        </mxCell>
        <mxCell id="2QjoCw9Z01jg0YIHaSG_-8" value="MaxPool" style="whiteSpace=wrap;html=1;aspect=fixed;fillColor=#f5f5f5;fontColor=#333333;strokeColor=#666666;fontSize=16;" parent="PNhSBjz8JBKgSJSJJbeo-9" vertex="1">
          <mxGeometry x="420" y="320" width="80" height="80" as="geometry" />
        </mxCell>
        <mxCell id="2QjoCw9Z01jg0YIHaSG_-10" value="" style="shape=flexArrow;endArrow=classic;html=1;rounded=0;entryX=0;entryY=0.5;entryDx=0;entryDy=0;exitX=0.998;exitY=0.111;exitDx=0;exitDy=0;exitPerimeter=0;fillColor=#f5f5f5;strokeColor=#666666;fontSize=16;" parent="PNhSBjz8JBKgSJSJJbeo-9" source="2QjoCw9Z01jg0YIHaSG_-7" target="2QjoCw9Z01jg0YIHaSG_-6" edge="1">
          <mxGeometry width="50" height="50" relative="1" as="geometry">
            <mxPoint x="120" y="240" as="sourcePoint" />
            <mxPoint x="170" y="190" as="targetPoint" />
          </mxGeometry>
        </mxCell>
        <mxCell id="2QjoCw9Z01jg0YIHaSG_-9" value="FC (Output Register)" style="rounded=0;whiteSpace=wrap;html=1;fillColor=#f5f5f5;fontColor=#333333;strokeColor=#666666;fontSize=16;" parent="PNhSBjz8JBKgSJSJJbeo-9" vertex="1">
          <mxGeometry x="510" y="520" width="270" height="40" as="geometry" />
        </mxCell>
        <mxCell id="2QjoCw9Z01jg0YIHaSG_-11" value="" style="shape=flexArrow;endArrow=classic;html=1;rounded=0;exitX=1;exitY=0.5;exitDx=0;exitDy=0;entryX=0.008;entryY=0.195;entryDx=0;entryDy=0;entryPerimeter=0;fillColor=#f5f5f5;strokeColor=#666666;fontSize=16;" parent="PNhSBjz8JBKgSJSJJbeo-9" source="2QjoCw9Z01jg0YIHaSG_-6" target="2QjoCw9Z01jg0YIHaSG_-1" edge="1">
          <mxGeometry width="50" height="50" relative="1" as="geometry">
            <mxPoint x="420" y="240" as="sourcePoint" />
            <mxPoint x="500" y="241" as="targetPoint" />
          </mxGeometry>
        </mxCell>
        <mxCell id="2QjoCw9Z01jg0YIHaSG_-12" value="" style="shape=flexArrow;endArrow=classic;html=1;rounded=0;entryX=0.5;entryY=0;entryDx=0;entryDy=0;fillColor=#f5f5f5;strokeColor=#666666;fontSize=16;" parent="PNhSBjz8JBKgSJSJJbeo-9" target="2QjoCw9Z01jg0YIHaSG_-8" edge="1">
          <mxGeometry width="50" height="50" relative="1" as="geometry">
            <mxPoint x="460" y="240" as="sourcePoint" />
            <mxPoint x="510" y="190" as="targetPoint" />
          </mxGeometry>
        </mxCell>
        <mxCell id="2QjoCw9Z01jg0YIHaSG_-13" value="" style="shape=flexArrow;endArrow=classic;html=1;rounded=0;entryX=1;entryY=0.889;entryDx=0;entryDy=0;entryPerimeter=0;exitX=0.5;exitY=0;exitDx=0;exitDy=0;fontSize=16;fillColor=#f5f5f5;strokeColor=#666666;" parent="PNhSBjz8JBKgSJSJJbeo-9" source="PNhSBjz8JBKgSJSJJbeo-1" target="2QjoCw9Z01jg0YIHaSG_-7" edge="1">
          <mxGeometry width="50" height="50" relative="1" as="geometry">
            <mxPoint x="209.83999999999997" y="520.08" as="sourcePoint" />
            <mxPoint x="120.00000000000006" y="519.9999999999999" as="targetPoint" />
            <Array as="points">
              <mxPoint x="430" y="520" />
            </Array>
          </mxGeometry>
        </mxCell>
        <mxCell id="2QjoCw9Z01jg0YIHaSG_-14" value="" style="shape=flexArrow;endArrow=classic;html=1;rounded=0;exitX=0.5;exitY=1;exitDx=0;exitDy=0;fillColor=#f5f5f5;strokeColor=#666666;fontSize=16;" parent="PNhSBjz8JBKgSJSJJbeo-9" source="2QjoCw9Z01jg0YIHaSG_-8" edge="1">
          <mxGeometry width="50" height="50" relative="1" as="geometry">
            <mxPoint x="459.76" y="400" as="sourcePoint" />
            <mxPoint x="460" y="460" as="targetPoint" />
          </mxGeometry>
        </mxCell>
        <mxCell id="2QjoCw9Z01jg0YIHaSG_-15" value="" style="shape=flexArrow;endArrow=classic;html=1;rounded=0;entryX=0.632;entryY=-0.02;entryDx=0;entryDy=0;entryPerimeter=0;fillColor=#f5f5f5;strokeColor=#666666;fontSize=16;" parent="PNhSBjz8JBKgSJSJJbeo-9" target="2QjoCw9Z01jg0YIHaSG_-9" edge="1">
          <mxGeometry width="50" height="50" relative="1" as="geometry">
            <mxPoint x="679.76" y="400" as="sourcePoint" />
            <mxPoint x="679.76" y="440" as="targetPoint" />
          </mxGeometry>
        </mxCell>
        <mxCell id="2QjoCw9Z01jg0YIHaSG_-18" value="Output Result" style="text;html=1;align=center;verticalAlign=middle;resizable=0;points=[];autosize=1;strokeColor=none;fillColor=none;fontSize=16;" parent="PNhSBjz8JBKgSJSJJbeo-9" vertex="1">
          <mxGeometry x="490" y="560" width="120" height="30" as="geometry" />
        </mxCell>
        <mxCell id="2QjoCw9Z01jg0YIHaSG_-19" value="Relu" style="whiteSpace=wrap;html=1;aspect=fixed;fillColor=#f5f5f5;fontColor=#333333;strokeColor=#666666;fontSize=16;" parent="PNhSBjz8JBKgSJSJJbeo-9" vertex="1">
          <mxGeometry x="320" y="320" width="80" height="80" as="geometry" />
        </mxCell>
        <mxCell id="2QjoCw9Z01jg0YIHaSG_-20" value="" style="shape=flexArrow;endArrow=classic;html=1;rounded=0;entryX=0.5;entryY=0;entryDx=0;entryDy=0;fillColor=#f5f5f5;strokeColor=#666666;fontSize=16;" parent="PNhSBjz8JBKgSJSJJbeo-9" target="2QjoCw9Z01jg0YIHaSG_-19" edge="1">
          <mxGeometry width="50" height="50" relative="1" as="geometry">
            <mxPoint x="360" y="240" as="sourcePoint" />
            <mxPoint x="360" y="310" as="targetPoint" />
          </mxGeometry>
        </mxCell>
        <mxCell id="2QjoCw9Z01jg0YIHaSG_-21" value="" style="shape=flexArrow;endArrow=classic;html=1;rounded=0;exitX=0.5;exitY=1;exitDx=0;exitDy=0;fillColor=#f5f5f5;strokeColor=#666666;fontSize=16;" parent="PNhSBjz8JBKgSJSJJbeo-9" source="2QjoCw9Z01jg0YIHaSG_-19" edge="1">
          <mxGeometry width="50" height="50" relative="1" as="geometry">
            <mxPoint x="359.65999999999997" y="400" as="sourcePoint" />
            <mxPoint x="360" y="460" as="targetPoint" />
          </mxGeometry>
        </mxCell>
        <mxCell id="2QjoCw9Z01jg0YIHaSG_-23" value="Controller" style="rounded=0;whiteSpace=wrap;html=1;fillColor=#dae8fc;strokeColor=#6c8ebf;fontSize=16;" parent="PNhSBjz8JBKgSJSJJbeo-9" vertex="1">
          <mxGeometry x="120" y="10" width="400" height="80" as="geometry" />
        </mxCell>
        <mxCell id="2QjoCw9Z01jg0YIHaSG_-25" value="" style="shape=flexArrow;endArrow=classic;startArrow=classic;html=1;rounded=0;width=28;startSize=11.075;startWidth=50.39239001189061;endWidth=50.39239001189061;endSize=8.332692307692307;fillColor=#dae8fc;strokeColor=#6c8ebf;fontSize=16;" parent="PNhSBjz8JBKgSJSJJbeo-9" edge="1">
          <mxGeometry width="100" height="100" relative="1" as="geometry">
            <mxPoint x="360" y="160" as="sourcePoint" />
            <mxPoint x="360" y="90" as="targetPoint" />
          </mxGeometry>
        </mxCell>
        <mxCell id="2QjoCw9Z01jg0YIHaSG_-26" value="Datapath" style="text;html=1;align=center;verticalAlign=middle;whiteSpace=wrap;rounded=0;fontSize=16;" parent="PNhSBjz8JBKgSJSJJbeo-9" vertex="1">
          <mxGeometry y="130" width="60" height="30" as="geometry" />
        </mxCell>
        <mxCell id="rRLMVjHES0aRzE-1ohgc-6" value="" style="shape=flexArrow;endArrow=classic;html=1;rounded=0;entryX=0.128;entryY=0.98;entryDx=0;entryDy=0;entryPerimeter=0;fillColor=#f5f5f5;strokeColor=#666666;fontSize=16;" parent="PNhSBjz8JBKgSJSJJbeo-9" target="PNhSBjz8JBKgSJSJJbeo-1" edge="1">
          <mxGeometry width="50" height="50" relative="1" as="geometry">
            <mxPoint x="680" y="430" as="sourcePoint" />
            <mxPoint x="550" y="430" as="targetPoint" />
            <Array as="points">
              <mxPoint x="504" y="430" />
            </Array>
          </mxGeometry>
        </mxCell>
        <mxCell id="rRLMVjHES0aRzE-1ohgc-8" style="edgeStyle=orthogonalEdgeStyle;rounded=0;orthogonalLoop=1;jettySize=auto;html=1;exitX=0.5;exitY=1;exitDx=0;exitDy=0;fontSize=16;" parent="PNhSBjz8JBKgSJSJJbeo-9" source="2QjoCw9Z01jg0YIHaSG_-22" target="2QjoCw9Z01jg0YIHaSG_-22" edge="1">
          <mxGeometry relative="1" as="geometry" />
        </mxCell>
        <mxCell id="PNhSBjz8JBKgSJSJJbeo-1" value="" style="shape=trapezoid;perimeter=trapezoidPerimeter;whiteSpace=wrap;html=1;fixedSize=1;rotation=-180;fillColor=#f5f5f5;fontColor=#333333;strokeColor=#666666;fontSize=16;" parent="PNhSBjz8JBKgSJSJJbeo-9" vertex="1">
          <mxGeometry x="330" y="460" width="200" height="30" as="geometry" />
        </mxCell>
        <mxCell id="PNhSBjz8JBKgSJSJJbeo-2" value="Mux" style="text;html=1;align=center;verticalAlign=middle;whiteSpace=wrap;rounded=0;fontSize=16;" parent="PNhSBjz8JBKgSJSJJbeo-9" vertex="1">
          <mxGeometry x="400" y="460" width="60" height="30" as="geometry" />
        </mxCell>
        <mxCell id="PNhSBjz8JBKgSJSJJbeo-3" value="Addr&lt;div&gt;Controller&lt;/div&gt;" style="rounded=0;whiteSpace=wrap;html=1;fillColor=#dae8fc;strokeColor=#6c8ebf;fontSize=16;" parent="PNhSBjz8JBKgSJSJJbeo-9" vertex="1">
          <mxGeometry x="150" y="410" width="90" height="60" as="geometry" />
        </mxCell>
        <mxCell id="PNhSBjz8JBKgSJSJJbeo-4" value="" style="shape=flexArrow;endArrow=classic;startArrow=classic;html=1;rounded=0;entryX=0.176;entryY=0.988;entryDx=0;entryDy=0;entryPerimeter=0;fillColor=#dae8fc;width=28;strokeColor=#6c8ebf;fontSize=16;" parent="PNhSBjz8JBKgSJSJJbeo-9" target="2QjoCw9Z01jg0YIHaSG_-23" edge="1">
          <mxGeometry width="100" height="100" relative="1" as="geometry">
            <mxPoint x="190" y="410" as="sourcePoint" />
            <mxPoint x="180" y="90" as="targetPoint" />
            <Array as="points">
              <mxPoint x="190" y="240" />
            </Array>
          </mxGeometry>
        </mxCell>
        <mxCell id="PNhSBjz8JBKgSJSJJbeo-6" value="" style="shape=flexArrow;endArrow=classic;startArrow=classic;html=1;rounded=0;entryX=0;entryY=0.5;entryDx=0;entryDy=0;exitX=0.993;exitY=0.669;exitDx=0;exitDy=0;exitPerimeter=0;fillColor=#dae8fc;strokeColor=#6c8ebf;fontSize=16;" parent="PNhSBjz8JBKgSJSJJbeo-9" source="2QjoCw9Z01jg0YIHaSG_-7" target="PNhSBjz8JBKgSJSJJbeo-3" edge="1">
          <mxGeometry width="100" height="100" relative="1" as="geometry">
            <mxPoint x="120" y="440" as="sourcePoint" />
            <mxPoint x="220" y="340" as="targetPoint" />
          </mxGeometry>
        </mxCell>
        <mxCell id="qFa7mxdC09aoMVFZ-_RW-6" value="AXI&amp;nbsp;" style="text;html=1;align=center;verticalAlign=middle;whiteSpace=wrap;rounded=0;fontSize=50;" vertex="1" parent="qFa7mxdC09aoMVFZ-_RW-10">
          <mxGeometry x="420" width="60" height="30" as="geometry" />
        </mxCell>
        <mxCell id="qFa7mxdC09aoMVFZ-_RW-8" value="" style="shape=flexArrow;endArrow=classic;startArrow=classic;html=1;rounded=0;fontSize=14;startSize=6;strokeWidth=3;" edge="1" parent="qFa7mxdC09aoMVFZ-_RW-10">
          <mxGeometry width="100" height="100" relative="1" as="geometry">
            <mxPoint x="450" y="170" as="sourcePoint" />
            <mxPoint x="450" y="40" as="targetPoint" />
            <Array as="points">
              <mxPoint x="450" y="120" />
            </Array>
          </mxGeometry>
        </mxCell>
        <mxCell id="qFa7mxdC09aoMVFZ-_RW-7" value="&lt;font style=&quot;font-size: 16px;&quot;&gt;Slave Register&lt;/font&gt;" style="rounded=0;whiteSpace=wrap;html=1;" vertex="1" parent="qFa7mxdC09aoMVFZ-_RW-10">
          <mxGeometry x="390" y="80" width="120" height="60" as="geometry" />
        </mxCell>
        <mxCell id="qFa7mxdC09aoMVFZ-_RW-78" value="" style="group" vertex="1" connectable="0" parent="1">
          <mxGeometry x="1160" y="1030" width="800" height="590" as="geometry" />
        </mxCell>
        <mxCell id="qFa7mxdC09aoMVFZ-_RW-48" value="" style="rounded=0;whiteSpace=wrap;html=1;dashed=1;dashPattern=1 4;fontSize=16;" vertex="1" parent="qFa7mxdC09aoMVFZ-_RW-78">
          <mxGeometry y="150" width="800" height="440" as="geometry" />
        </mxCell>
        <mxCell id="qFa7mxdC09aoMVFZ-_RW-49" value="&lt;div&gt;systolic array&lt;/div&gt;&lt;div&gt;&lt;br&gt;&lt;/div&gt;&lt;div&gt;5x5&lt;/div&gt;" style="whiteSpace=wrap;html=1;aspect=fixed;fillColor=#f5f5f5;fontColor=#333333;strokeColor=#666666;fontSize=16;" vertex="1" parent="qFa7mxdC09aoMVFZ-_RW-78">
          <mxGeometry x="580" y="190" width="200" height="200" as="geometry" />
        </mxCell>
        <mxCell id="qFa7mxdC09aoMVFZ-_RW-50" value="line_buffer" style="rounded=0;whiteSpace=wrap;html=1;fillColor=#f5f5f5;fontColor=#333333;strokeColor=#666666;fontSize=16;" vertex="1" parent="qFa7mxdC09aoMVFZ-_RW-78">
          <mxGeometry x="240" y="190" width="80" height="80" as="geometry" />
        </mxCell>
        <mxCell id="qFa7mxdC09aoMVFZ-_RW-51" value="&lt;div&gt;memory&lt;/div&gt;&lt;div&gt;&lt;br&gt;&lt;/div&gt;&lt;div&gt;&lt;br&gt;&lt;/div&gt;" style="rounded=0;whiteSpace=wrap;html=1;fillColor=#f5f5f5;fontColor=#333333;strokeColor=#666666;fontSize=16;" vertex="1" parent="qFa7mxdC09aoMVFZ-_RW-78">
          <mxGeometry x="20" y="190" width="80" height="360" as="geometry" />
        </mxCell>
        <mxCell id="qFa7mxdC09aoMVFZ-_RW-52" value="MaxPool" style="whiteSpace=wrap;html=1;aspect=fixed;fillColor=#f5f5f5;fontColor=#333333;strokeColor=#666666;fontSize=16;" vertex="1" parent="qFa7mxdC09aoMVFZ-_RW-78">
          <mxGeometry x="420" y="310" width="80" height="80" as="geometry" />
        </mxCell>
        <mxCell id="qFa7mxdC09aoMVFZ-_RW-53" value="" style="shape=flexArrow;endArrow=classic;html=1;rounded=0;entryX=0;entryY=0.5;entryDx=0;entryDy=0;exitX=0.998;exitY=0.111;exitDx=0;exitDy=0;exitPerimeter=0;fillColor=#f5f5f5;strokeColor=#666666;fontSize=16;" edge="1" parent="qFa7mxdC09aoMVFZ-_RW-78" source="qFa7mxdC09aoMVFZ-_RW-51" target="qFa7mxdC09aoMVFZ-_RW-50">
          <mxGeometry width="50" height="50" relative="1" as="geometry">
            <mxPoint x="120" y="230" as="sourcePoint" />
            <mxPoint x="170" y="180" as="targetPoint" />
          </mxGeometry>
        </mxCell>
        <mxCell id="qFa7mxdC09aoMVFZ-_RW-54" value="FC (Output Register)" style="rounded=0;whiteSpace=wrap;html=1;fillColor=#f5f5f5;fontColor=#333333;strokeColor=#666666;fontSize=16;" vertex="1" parent="qFa7mxdC09aoMVFZ-_RW-78">
          <mxGeometry x="510" y="510" width="270" height="40" as="geometry" />
        </mxCell>
        <mxCell id="qFa7mxdC09aoMVFZ-_RW-55" value="" style="shape=flexArrow;endArrow=classic;html=1;rounded=0;exitX=1;exitY=0.5;exitDx=0;exitDy=0;entryX=0.008;entryY=0.195;entryDx=0;entryDy=0;entryPerimeter=0;fillColor=#f5f5f5;strokeColor=#666666;fontSize=16;" edge="1" parent="qFa7mxdC09aoMVFZ-_RW-78" source="qFa7mxdC09aoMVFZ-_RW-50" target="qFa7mxdC09aoMVFZ-_RW-49">
          <mxGeometry width="50" height="50" relative="1" as="geometry">
            <mxPoint x="420" y="230" as="sourcePoint" />
            <mxPoint x="500" y="231" as="targetPoint" />
          </mxGeometry>
        </mxCell>
        <mxCell id="qFa7mxdC09aoMVFZ-_RW-56" value="" style="shape=flexArrow;endArrow=classic;html=1;rounded=0;entryX=0.5;entryY=0;entryDx=0;entryDy=0;fillColor=#f5f5f5;strokeColor=#666666;fontSize=16;" edge="1" parent="qFa7mxdC09aoMVFZ-_RW-78" target="qFa7mxdC09aoMVFZ-_RW-52">
          <mxGeometry width="50" height="50" relative="1" as="geometry">
            <mxPoint x="460" y="230" as="sourcePoint" />
            <mxPoint x="510" y="180" as="targetPoint" />
          </mxGeometry>
        </mxCell>
        <mxCell id="qFa7mxdC09aoMVFZ-_RW-57" value="" style="shape=flexArrow;endArrow=classic;html=1;rounded=0;entryX=1;entryY=0.889;entryDx=0;entryDy=0;entryPerimeter=0;exitX=0.5;exitY=0;exitDx=0;exitDy=0;fontSize=16;fillColor=#f5f5f5;strokeColor=#666666;" edge="1" parent="qFa7mxdC09aoMVFZ-_RW-78" source="qFa7mxdC09aoMVFZ-_RW-69" target="qFa7mxdC09aoMVFZ-_RW-51">
          <mxGeometry width="50" height="50" relative="1" as="geometry">
            <mxPoint x="209.83999999999992" y="510.0799999999999" as="sourcePoint" />
            <mxPoint x="120" y="510" as="targetPoint" />
            <Array as="points">
              <mxPoint x="430" y="510" />
            </Array>
          </mxGeometry>
        </mxCell>
        <mxCell id="qFa7mxdC09aoMVFZ-_RW-58" value="" style="shape=flexArrow;endArrow=classic;html=1;rounded=0;exitX=0.5;exitY=1;exitDx=0;exitDy=0;fillColor=#f5f5f5;strokeColor=#666666;fontSize=16;" edge="1" parent="qFa7mxdC09aoMVFZ-_RW-78" source="qFa7mxdC09aoMVFZ-_RW-52">
          <mxGeometry width="50" height="50" relative="1" as="geometry">
            <mxPoint x="459.76" y="390" as="sourcePoint" />
            <mxPoint x="460" y="450" as="targetPoint" />
          </mxGeometry>
        </mxCell>
        <mxCell id="qFa7mxdC09aoMVFZ-_RW-59" value="" style="shape=flexArrow;endArrow=classic;html=1;rounded=0;entryX=0.632;entryY=-0.02;entryDx=0;entryDy=0;entryPerimeter=0;fillColor=#f5f5f5;strokeColor=#666666;fontSize=16;" edge="1" parent="qFa7mxdC09aoMVFZ-_RW-78" target="qFa7mxdC09aoMVFZ-_RW-54">
          <mxGeometry width="50" height="50" relative="1" as="geometry">
            <mxPoint x="679.76" y="390" as="sourcePoint" />
            <mxPoint x="679.76" y="430" as="targetPoint" />
          </mxGeometry>
        </mxCell>
        <mxCell id="qFa7mxdC09aoMVFZ-_RW-60" value="Output Result" style="text;html=1;align=center;verticalAlign=middle;resizable=0;points=[];autosize=1;strokeColor=none;fillColor=none;fontSize=16;" vertex="1" parent="qFa7mxdC09aoMVFZ-_RW-78">
          <mxGeometry x="490" y="550" width="120" height="30" as="geometry" />
        </mxCell>
        <mxCell id="qFa7mxdC09aoMVFZ-_RW-61" value="Relu" style="whiteSpace=wrap;html=1;aspect=fixed;fillColor=#f5f5f5;fontColor=#333333;strokeColor=#666666;fontSize=16;" vertex="1" parent="qFa7mxdC09aoMVFZ-_RW-78">
          <mxGeometry x="320" y="310" width="80" height="80" as="geometry" />
        </mxCell>
        <mxCell id="qFa7mxdC09aoMVFZ-_RW-62" value="" style="shape=flexArrow;endArrow=classic;html=1;rounded=0;entryX=0.5;entryY=0;entryDx=0;entryDy=0;fillColor=#f5f5f5;strokeColor=#666666;fontSize=16;" edge="1" parent="qFa7mxdC09aoMVFZ-_RW-78" target="qFa7mxdC09aoMVFZ-_RW-61">
          <mxGeometry width="50" height="50" relative="1" as="geometry">
            <mxPoint x="360" y="230" as="sourcePoint" />
            <mxPoint x="360" y="300" as="targetPoint" />
          </mxGeometry>
        </mxCell>
        <mxCell id="qFa7mxdC09aoMVFZ-_RW-63" value="" style="shape=flexArrow;endArrow=classic;html=1;rounded=0;exitX=0.5;exitY=1;exitDx=0;exitDy=0;fillColor=#f5f5f5;strokeColor=#666666;fontSize=16;" edge="1" parent="qFa7mxdC09aoMVFZ-_RW-78" source="qFa7mxdC09aoMVFZ-_RW-61">
          <mxGeometry width="50" height="50" relative="1" as="geometry">
            <mxPoint x="359.65999999999985" y="390" as="sourcePoint" />
            <mxPoint x="360" y="450" as="targetPoint" />
          </mxGeometry>
        </mxCell>
        <mxCell id="qFa7mxdC09aoMVFZ-_RW-64" value="Controller" style="rounded=0;whiteSpace=wrap;html=1;fillColor=#dae8fc;strokeColor=#6c8ebf;fontSize=16;" vertex="1" parent="qFa7mxdC09aoMVFZ-_RW-78">
          <mxGeometry x="120" width="400" height="80" as="geometry" />
        </mxCell>
        <mxCell id="qFa7mxdC09aoMVFZ-_RW-65" value="" style="shape=flexArrow;endArrow=classic;startArrow=classic;html=1;rounded=0;width=28;startSize=11.075;startWidth=50.39239001189061;endWidth=50.39239001189061;endSize=8.332692307692307;fillColor=#dae8fc;strokeColor=#6c8ebf;fontSize=16;" edge="1" parent="qFa7mxdC09aoMVFZ-_RW-78">
          <mxGeometry width="100" height="100" relative="1" as="geometry">
            <mxPoint x="360" y="150" as="sourcePoint" />
            <mxPoint x="360" y="80" as="targetPoint" />
          </mxGeometry>
        </mxCell>
        <mxCell id="qFa7mxdC09aoMVFZ-_RW-66" value="Datapath" style="text;html=1;align=center;verticalAlign=middle;whiteSpace=wrap;rounded=0;fontSize=16;" vertex="1" parent="qFa7mxdC09aoMVFZ-_RW-78">
          <mxGeometry y="120" width="60" height="30" as="geometry" />
        </mxCell>
        <mxCell id="qFa7mxdC09aoMVFZ-_RW-67" value="" style="shape=flexArrow;endArrow=classic;html=1;rounded=0;entryX=0.128;entryY=0.98;entryDx=0;entryDy=0;entryPerimeter=0;fillColor=#f5f5f5;strokeColor=#666666;fontSize=16;" edge="1" parent="qFa7mxdC09aoMVFZ-_RW-78" target="qFa7mxdC09aoMVFZ-_RW-69">
          <mxGeometry width="50" height="50" relative="1" as="geometry">
            <mxPoint x="680" y="420" as="sourcePoint" />
            <mxPoint x="550" y="420" as="targetPoint" />
            <Array as="points">
              <mxPoint x="504" y="420" />
            </Array>
          </mxGeometry>
        </mxCell>
        <mxCell id="qFa7mxdC09aoMVFZ-_RW-68" style="edgeStyle=orthogonalEdgeStyle;rounded=0;orthogonalLoop=1;jettySize=auto;html=1;exitX=0.5;exitY=1;exitDx=0;exitDy=0;fontSize=16;" edge="1" parent="qFa7mxdC09aoMVFZ-_RW-78" source="qFa7mxdC09aoMVFZ-_RW-48" target="qFa7mxdC09aoMVFZ-_RW-48">
          <mxGeometry relative="1" as="geometry" />
        </mxCell>
        <mxCell id="qFa7mxdC09aoMVFZ-_RW-69" value="" style="shape=trapezoid;perimeter=trapezoidPerimeter;whiteSpace=wrap;html=1;fixedSize=1;rotation=-180;fillColor=#f5f5f5;fontColor=#333333;strokeColor=#666666;fontSize=16;" vertex="1" parent="qFa7mxdC09aoMVFZ-_RW-78">
          <mxGeometry x="330" y="450" width="200" height="30" as="geometry" />
        </mxCell>
        <mxCell id="qFa7mxdC09aoMVFZ-_RW-70" value="Mux" style="text;html=1;align=center;verticalAlign=middle;whiteSpace=wrap;rounded=0;fontSize=16;" vertex="1" parent="qFa7mxdC09aoMVFZ-_RW-78">
          <mxGeometry x="400" y="450" width="60" height="30" as="geometry" />
        </mxCell>
        <mxCell id="qFa7mxdC09aoMVFZ-_RW-71" value="Addr&lt;div&gt;Controller&lt;/div&gt;" style="rounded=0;whiteSpace=wrap;html=1;fillColor=#dae8fc;strokeColor=#6c8ebf;fontSize=16;" vertex="1" parent="qFa7mxdC09aoMVFZ-_RW-78">
          <mxGeometry x="150" y="400" width="90" height="60" as="geometry" />
        </mxCell>
        <mxCell id="qFa7mxdC09aoMVFZ-_RW-72" value="" style="shape=flexArrow;endArrow=classic;startArrow=classic;html=1;rounded=0;entryX=0.176;entryY=0.988;entryDx=0;entryDy=0;entryPerimeter=0;fillColor=#dae8fc;width=28;strokeColor=#6c8ebf;fontSize=16;" edge="1" parent="qFa7mxdC09aoMVFZ-_RW-78" target="qFa7mxdC09aoMVFZ-_RW-64">
          <mxGeometry width="100" height="100" relative="1" as="geometry">
            <mxPoint x="190" y="400" as="sourcePoint" />
            <mxPoint x="180" y="80" as="targetPoint" />
            <Array as="points">
              <mxPoint x="190" y="230" />
            </Array>
          </mxGeometry>
        </mxCell>
        <mxCell id="qFa7mxdC09aoMVFZ-_RW-73" value="" style="shape=flexArrow;endArrow=classic;startArrow=classic;html=1;rounded=0;entryX=0;entryY=0.5;entryDx=0;entryDy=0;exitX=0.993;exitY=0.669;exitDx=0;exitDy=0;exitPerimeter=0;fillColor=#dae8fc;strokeColor=#6c8ebf;fontSize=16;" edge="1" parent="qFa7mxdC09aoMVFZ-_RW-78" source="qFa7mxdC09aoMVFZ-_RW-51" target="qFa7mxdC09aoMVFZ-_RW-71">
          <mxGeometry width="100" height="100" relative="1" as="geometry">
            <mxPoint x="120" y="430" as="sourcePoint" />
            <mxPoint x="220" y="330" as="targetPoint" />
          </mxGeometry>
        </mxCell>
        <mxCell id="qFa7mxdC09aoMVFZ-_RW-79" value="" style="shape=flexArrow;endArrow=classic;html=1;rounded=0;labelBackgroundColor=#FF410C;fillColor=#f8cecc;strokeColor=#b85450;strokeWidth=8;" edge="1" parent="qFa7mxdC09aoMVFZ-_RW-78">
          <mxGeometry width="50" height="50" relative="1" as="geometry">
            <mxPoint x="47.5" y="230" as="sourcePoint" />
            <mxPoint x="680" y="540" as="targetPoint" />
            <Array as="points">
              <mxPoint x="680" y="230" />
              <mxPoint x="680" y="330" />
              <mxPoint x="680" y="440" />
              <mxPoint x="680" y="510" />
            </Array>
          </mxGeometry>
        </mxCell>
      </root>
    </mxGraphModel>
  </diagram>
</mxfile>
